<?xml version="1.0" encoding="UTF-8"?>
<svg enable-background="new 0 0 429 50" version="1.1" viewBox="0 0 429 50" xml:space="preserve" xmlns="http://www.w3.org/2000/svg">
<style type="text/css">
	.st0{enable-background:new    ;}
	.st1{fill:#FFFFFF;}
</style>
<g transform="translate(-1)">
	<g class="st0">
		<path class="st1" d="m70.4 14.8v10.6c0 1.2 0.2 2.3 0.7 3.1 0.7 1.2 1.9 1.9 3.5 1.9 2 0 3.3-0.7 4.1-2 0.4-0.7 0.6-1.7 0.6-3v-10.6h2.4v9.7c0 2.1-0.3 3.7-0.9 4.9-1.1 2.1-3 3.1-6 3.1-2.9 0-4.9-1-5.9-3.1-0.6-1.1-0.9-2.8-0.9-4.9v-9.7h2.4z"/>
		<path class="st1" d="M85.4,29.4h2.4V32h-2.4V29.4z"/>
		<path class="st1" d="m93.4 26.4c0.1 1 0.3 1.8 0.7 2.4 0.7 1.1 2.1 1.7 3.9 1.7 0.8 0 1.6-0.1 2.3-0.4 1.3-0.5 2-1.4 2-2.6 0-0.9-0.3-1.6-0.9-2s-1.5-0.7-2.7-1l-2.2-0.5c-1.5-0.3-2.5-0.7-3.1-1.1-1.1-0.7-1.6-1.8-1.6-3.2 0-1.5 0.5-2.8 1.6-3.8 1-1 2.5-1.5 4.4-1.5 1.8 0 3.2 0.4 4.5 1.3 1.2 0.9 1.8 2.3 1.8 4.2h-2.2c-0.1-0.9-0.4-1.6-0.7-2.1-0.7-0.9-1.8-1.3-3.5-1.3-1.3 0-2.3 0.3-2.8 0.9-0.6 0.6-0.9 1.2-0.9 2s0.3 1.5 1 1.9c0.4 0.2 1.5 0.6 3 0.9l2.3 0.6c1.1 0.3 2 0.6 2.6 1.1 1.1 0.8 1.6 2 1.6 3.5 0 1.9-0.7 3.3-2 4.1-1.4 0.8-2.9 1.2-4.7 1.2-2.1 0-3.7-0.5-4.9-1.6s-1.8-2.6-1.7-4.4h2.2z"/>
		<path class="st1" d="M108.1,29.4h2.4V32h-2.4V29.4z"/>
		<path class="st1" d="m121.3 14.8h6.9c2.3 0 4.1 0.8 5.4 2.5 1.1 1.5 1.7 3.5 1.7 5.8 0 1.8-0.3 3.5-1 5-1.2 2.6-3.2 3.9-6.2 3.9h-6.9v-17.2zm6.4 15.2c0.8 0 1.4-0.1 1.9-0.2 0.9-0.3 1.6-0.9 2.2-1.8 0.5-0.7 0.8-1.6 1-2.7 0.1-0.6 0.2-1.2 0.2-1.8 0-2.1-0.4-3.8-1.2-5s-2.2-1.8-4-1.8h-4v13.3h3.9z"/>
		<path class="st1" d="m146 19.8c0.8 0.4 1.5 1 1.9 1.6s0.7 1.4 0.8 2.2c0.1 0.6 0.2 1.5 0.2 2.8h-9.1c0 1.3 0.3 2.3 0.9 3.1s1.4 1.2 2.6 1.2c1.1 0 2-0.4 2.6-1.1 0.4-0.4 0.6-0.9 0.8-1.5h2.1c-0.1 0.5-0.2 1-0.5 1.5s-0.7 1-1 1.4c-0.6 0.6-1.4 1-2.4 1.3-0.5 0.1-1.1 0.2-1.7 0.2-1.6 0-2.9-0.6-3.9-1.7s-1.6-2.7-1.6-4.8c0-2 0.5-3.7 1.6-4.9s2.5-1.9 4.3-1.9c0.7 0 1.6 0.2 2.4 0.6zm0.7 4.9c-0.1-0.9-0.3-1.6-0.6-2.2-0.6-1-1.5-1.5-2.9-1.5-1 0-1.8 0.3-2.4 1s-1 1.6-1 2.7h6.9z"/>
		<path class="st1" d="m151.4 19.5h2.1v1.7c0.4-0.6 0.9-1 1.4-1.3 0.7-0.5 1.6-0.7 2.5-0.7 1.4 0 2.6 0.5 3.6 1.6s1.5 2.6 1.5 4.7c0 2.7-0.7 4.7-2.2 5.9-0.9 0.7-2 1.1-3.2 1.1-0.9 0-1.7-0.2-2.4-0.6-0.4-0.2-0.8-0.6-1.3-1.2v6.3h-2.1v-17.5zm7.9 9.8c0.7-0.8 1-2.1 1-3.7 0-1-0.1-1.9-0.4-2.6-0.5-1.4-1.6-2.1-3-2.1-1.5 0-2.5 0.7-3 2.2-0.3 0.8-0.4 1.8-0.4 3 0 1 0.1 1.8 0.4 2.5 0.5 1.3 1.6 1.9 3 1.9 1 0.1 1.8-0.3 2.4-1.2z"/>
		<path class="st1" d="m171.7 24.4c0.5-0.1 0.8-0.3 1-0.6 0.1-0.2 0.1-0.5 0.1-0.8 0-0.7-0.3-1.2-0.8-1.6s-1.2-0.5-2.2-0.5c-1.1 0-1.9 0.3-2.3 0.9-0.3 0.3-0.4 0.8-0.5 1.5h-2c0-1.6 0.5-2.6 1.5-3.2s2.1-0.9 3.4-0.9c1.5 0 2.7 0.3 3.6 0.8 0.9 0.6 1.4 1.4 1.4 2.6v7.2c0 0.2 0 0.4 0.1 0.5s0.3 0.2 0.6 0.2h0.3s0.2 0 0.4-0.1v1.6c-0.3 0.1-0.6 0.2-0.8 0.2s-0.4 0-0.7 0c-0.7 0-1.3-0.3-1.6-0.8-0.2-0.3-0.3-0.7-0.4-1.2-0.4 0.6-1 1.1-1.9 1.5s-1.7 0.6-2.7 0.6c-1.2 0-2.1-0.4-2.9-1.1s-1.1-1.6-1.1-2.7c0-1.2 0.4-2.1 1.1-2.7s1.7-1 2.9-1.2l3.5-0.2zm-4.5 5.7c0.4 0.4 1 0.5 1.6 0.5 0.7 0 1.5-0.2 2.2-0.5 1.2-0.6 1.8-1.5 1.8-2.8v-1.7c-0.3 0.2-0.6 0.3-1 0.4s-0.8 0.2-1.2 0.2l-1.3 0.2c-0.8 0.1-1.3 0.3-1.7 0.5-0.7 0.4-1 1-1 1.8-0.1 0.6 0.2 1 0.6 1.4z"/>
		<path class="st1" d="m178.3 19.4h2v2.2c0.2-0.4 0.6-0.9 1.2-1.5s1.4-0.9 2.2-0.9h0.2s0.3 0 0.5 0v2.2h-0.3s-0.2 0-0.3 0c-1.1 0-1.9 0.3-2.4 1s-0.9 1.5-0.9 2.4v7.2h-2.1v-12.6z"/>
		<path class="st1" d="m186.7 15.9h2.1v3.5h2v1.7h-2v8.2c0 0.4 0.1 0.7 0.4 0.9 0.2 0.1 0.4 0.1 0.8 0.1h0.3s0.3 0 0.4 0v1.7c-0.2 0.1-0.5 0.1-0.8 0.2s-0.5 0-0.8 0c-1 0-1.7-0.3-2-0.8s-0.5-1.2-0.5-2v-8.3h-1.6v-1.7h1.7v-3.5z"/>
		<path class="st1" d="m192.9 19.4h2.1v1.8c0.5-0.6 1-1.1 1.4-1.3 0.7-0.5 1.5-0.7 2.4-0.7 1 0 1.8 0.2 2.4 0.7 0.3 0.3 0.7 0.7 0.9 1.2 0.5-0.7 1-1.2 1.7-1.5s1.3-0.5 2.1-0.5c1.7 0 2.8 0.6 3.4 1.8 0.3 0.7 0.5 1.5 0.5 2.6v8.5h-2.2v-8.7c0-0.8-0.2-1.4-0.6-1.7s-0.9-0.5-1.5-0.5c-0.8 0-1.5 0.3-2.1 0.8s-0.9 1.5-0.9 2.8v7.3h-2.1v-8.2c0-0.9-0.1-1.5-0.3-1.9-0.3-0.6-0.9-0.9-1.8-0.9-0.8 0-1.5 0.3-2.2 0.9s-1 1.7-1 3.4v6.7h-2.1v-12.6z"/>
		<path class="st1" d="m220.7 19.8c0.8 0.4 1.5 1 1.9 1.6s0.7 1.4 0.8 2.2c0.1 0.6 0.2 1.5 0.2 2.8h-9.1c0 1.3 0.3 2.3 0.9 3.1s1.4 1.2 2.6 1.2c1.1 0 2-0.4 2.6-1.1 0.4-0.4 0.6-0.9 0.8-1.5h2.1c-0.1 0.5-0.2 1-0.5 1.5s-0.7 1-1 1.4c-0.6 0.6-1.4 1-2.4 1.3-0.5 0.1-1.1 0.2-1.7 0.2-1.6 0-2.9-0.6-3.9-1.7s-1.6-2.7-1.6-4.8c0-2 0.5-3.7 1.6-4.9s2.5-1.9 4.3-1.9c0.7 0 1.5 0.2 2.4 0.6zm0.7 4.9c-0.1-0.9-0.3-1.6-0.6-2.2-0.6-1-1.5-1.5-2.9-1.5-1 0-1.8 0.3-2.4 1-0.7 0.7-1 1.6-1 2.7h6.9z"/>
		<path class="st1" d="m226.3 19.4h2v1.8c0.6-0.7 1.2-1.3 1.9-1.6s1.4-0.5 2.2-0.5c1.8 0 3 0.6 3.6 1.9 0.3 0.7 0.5 1.7 0.5 2.9v8.1h-2.1v-7.9c0-0.8-0.1-1.4-0.3-1.9-0.4-0.8-1.1-1.2-2-1.2-0.5 0-0.9 0.1-1.2 0.2-0.6 0.2-1.1 0.5-1.5 1-0.4 0.4-0.6 0.8-0.7 1.3s-0.2 1.1-0.2 1.9v6.6h-2.1v-12.6z"/>
		<path class="st1" d="m240 15.9h2.1v3.5h2v1.7h-2v8.2c0 0.4 0.1 0.7 0.4 0.9 0.2 0.1 0.4 0.1 0.8 0.1h0.3s0.3 0 0.4 0v1.7c-0.2 0.1-0.5 0.1-0.8 0.2s-0.5 0-0.8 0c-1 0-1.7-0.3-2-0.8s-0.5-1.2-0.5-2v-8.3h-1.7v-1.7h1.7v-3.5z"/>
		<path class="st1" d="m262.1 20.7c1.1 1.1 1.7 2.7 1.7 4.8 0 2-0.5 3.7-1.5 5s-2.5 2-4.5 2c-1.7 0-3.1-0.6-4.1-1.8s-1.5-2.7-1.5-4.7c0-2.1 0.5-3.8 1.6-5s2.5-1.9 4.3-1.9c1.5 0 2.8 0.5 4 1.6zm-1.4 8.3c0.5-1.1 0.8-2.2 0.8-3.5 0-1.2-0.2-2.1-0.6-2.9-0.6-1.2-1.6-1.7-3-1.7-1.3 0-2.2 0.5-2.8 1.5s-0.9 2.2-0.9 3.6c0 1.3 0.3 2.4 0.9 3.3s1.5 1.3 2.8 1.3c1.4 0 2.3-0.5 2.8-1.6z"/>
		<path class="st1" d="m267.3 15.6c0.5-0.7 1.4-1.1 2.8-1.1h0.4s0.3 0 0.5 0v1.9h-0.5-0.3c-0.6 0-1 0.2-1.2 0.5s-0.2 1.2-0.2 2.5h2.1v1.7h-2.1v10.9h-2.1v-10.8h-1.7v-1.7h1.7v-2c0.2-0.8 0.3-1.5 0.6-1.9z"/>
		<path class="st1" d="M292,14.8v2.1h-5.8V32h-2.4V16.8h-5.8v-2.1H292z"/>
		<path class="st1" d="m293.1 19.4h2v2.2c0.2-0.4 0.6-0.9 1.2-1.5s1.4-0.9 2.2-0.9h0.2s0.3 0 0.5 0v2.2h-0.3s-0.2 0-0.3 0c-1.1 0-1.9 0.3-2.4 1s-0.9 1.5-0.9 2.4v7.2h-2.1v-12.6z"/>
		<path class="st1" d="m307.7 24.4c0.5-0.1 0.8-0.3 1-0.6 0.1-0.2 0.1-0.5 0.1-0.8 0-0.7-0.3-1.2-0.8-1.6-0.5-0.3-1.2-0.5-2.2-0.5-1.1 0-1.9 0.3-2.3 0.9-0.3 0.3-0.4 0.8-0.5 1.5h-2c0-1.6 0.5-2.6 1.5-3.2s2.1-0.9 3.4-0.9c1.5 0 2.7 0.3 3.6 0.8 0.9 0.6 1.4 1.4 1.4 2.6v7.2c0 0.2 0 0.4 0.1 0.5s0.3 0.2 0.6 0.2h0.3s0.2 0 0.4-0.1v1.6c-0.3 0.1-0.6 0.2-0.8 0.2s-0.4 0-0.7 0c-0.7 0-1.3-0.3-1.6-0.8-0.2-0.3-0.3-0.7-0.4-1.2-0.4 0.6-1 1.1-1.9 1.5s-1.7 0.6-2.7 0.6c-1.2 0-2.1-0.4-2.9-1.1s-1.1-1.6-1.1-2.7c0-1.2 0.4-2.1 1.1-2.7s1.7-1 2.9-1.2l3.5-0.2zm-4.4 5.7c0.4 0.4 1 0.5 1.6 0.5 0.7 0 1.5-0.2 2.2-0.5 1.2-0.6 1.8-1.5 1.8-2.8v-1.7c-0.3 0.2-0.6 0.3-1 0.4s-0.8 0.2-1.2 0.2l-1.3 0.2c-0.8 0.1-1.3 0.3-1.7 0.5-0.7 0.4-1 1-1 1.8-0.1 0.6 0.1 1 0.6 1.4z"/>
		<path class="st1" d="m314.3 19.4h2v1.8c0.6-0.7 1.2-1.3 1.9-1.6s1.4-0.5 2.2-0.5c1.8 0 3 0.6 3.6 1.9 0.3 0.7 0.5 1.7 0.5 2.9v8.1h-2.1v-7.9c0-0.8-0.1-1.4-0.3-1.9-0.4-0.8-1.1-1.2-2-1.2-0.5 0-0.9 0.1-1.2 0.2-0.6 0.2-1.1 0.5-1.5 1-0.4 0.4-0.6 0.8-0.7 1.3s-0.2 1.1-0.2 1.9v6.6h-2.1v-12.6z"/>
		<path class="st1" d="m328.9 28.1c0.1 0.7 0.2 1.2 0.5 1.6 0.5 0.7 1.5 1 2.8 1 0.8 0 1.5-0.2 2.1-0.5s0.9-0.9 0.9-1.6c0-0.5-0.2-0.9-0.7-1.2-0.3-0.2-0.9-0.4-1.8-0.6l-1.7-0.4c-1.1-0.3-1.9-0.6-2.4-0.9-0.9-0.6-1.4-1.4-1.4-2.4 0-1.2 0.4-2.1 1.3-2.9 0.9-0.7 2-1.1 3.5-1.1 1.9 0 3.3 0.6 4.1 1.7 0.5 0.7 0.8 1.5 0.8 2.3h-2c0-0.5-0.2-0.9-0.5-1.3-0.5-0.6-1.4-0.8-2.6-0.8-0.8 0-1.4 0.2-1.9 0.5s-0.6 0.7-0.6 1.2 0.3 1 0.8 1.3c0.3 0.2 0.8 0.4 1.4 0.5l1.4 0.3c1.5 0.4 2.6 0.7 3.1 1.1 0.8 0.5 1.2 1.4 1.2 2.5s-0.4 2.1-1.3 2.9-2.2 1.2-3.9 1.2c-1.9 0-3.2-0.4-4-1.3s-1.2-1.9-1.3-3.1h2.2z"/>
		<path class="st1" d="m339.5 19.5h2.1v1.7c0.4-0.6 0.9-1 1.4-1.3 0.7-0.5 1.6-0.7 2.5-0.7 1.4 0 2.6 0.5 3.6 1.6s1.5 2.6 1.5 4.7c0 2.7-0.7 4.7-2.2 5.9-0.9 0.7-2 1.1-3.2 1.1-0.9 0-1.7-0.2-2.4-0.6-0.4-0.2-0.8-0.6-1.3-1.2v6.3h-2.1v-17.5zm7.9 9.8c0.7-0.8 1-2.1 1-3.7 0-1-0.1-1.9-0.4-2.6-0.5-1.4-1.6-2.1-3-2.1-1.5 0-2.5 0.7-3 2.2-0.3 0.8-0.4 1.8-0.4 3 0 1 0.1 1.8 0.4 2.5 0.5 1.3 1.6 1.9 3 1.9 1 0.1 1.8-0.3 2.4-1.2z"/>
		<path class="st1" d="m362.1 20.7c1.1 1.1 1.7 2.7 1.7 4.8 0 2-0.5 3.7-1.5 5s-2.5 2-4.5 2c-1.7 0-3.1-0.6-4.1-1.8s-1.5-2.7-1.5-4.7c0-2.1 0.5-3.8 1.6-5s2.5-1.9 4.3-1.9c1.6 0 2.9 0.5 4 1.6zm-1.3 8.3c0.5-1.1 0.8-2.2 0.8-3.5 0-1.2-0.2-2.1-0.6-2.9-0.6-1.2-1.6-1.7-3-1.7-1.3 0-2.2 0.5-2.8 1.5s-0.9 2.2-0.9 3.6c0 1.3 0.3 2.4 0.9 3.3s1.5 1.3 2.8 1.3c1.4 0 2.3-0.5 2.8-1.6z"/>
		<path class="st1" d="m366.4 19.4h2v2.2c0.2-0.4 0.6-0.9 1.2-1.5s1.4-0.9 2.2-0.9h0.2s0.3 0 0.5 0v2.2h-0.3s-0.2 0-0.3 0c-1.1 0-1.9 0.3-2.4 1s-0.9 1.5-0.9 2.4v7.2h-2.1v-12.6z"/>
		<path class="st1" d="m374.8 15.9h2.1v3.5h2v1.7h-2v8.2c0 0.4 0.1 0.7 0.4 0.9 0.2 0.1 0.4 0.1 0.8 0.1h0.3s0.3 0 0.4 0v1.7c-0.2 0.1-0.5 0.1-0.8 0.2s-0.5 0-0.8 0c-1 0-1.7-0.3-2-0.8s-0.5-1.2-0.5-2v-8.3h-1.7v-1.7h1.7v-3.5z"/>
		<path class="st1" d="m387.8 24.4c0.5-0.1 0.8-0.3 1-0.6 0.1-0.2 0.1-0.5 0.1-0.8 0-0.7-0.3-1.2-0.8-1.6-0.5-0.3-1.2-0.5-2.2-0.5-1.1 0-1.9 0.3-2.3 0.9-0.3 0.3-0.4 0.8-0.5 1.5h-2c0-1.6 0.5-2.6 1.5-3.2s2.1-0.9 3.4-0.9c1.5 0 2.7 0.3 3.6 0.8 0.9 0.6 1.4 1.4 1.4 2.6v7.2c0 0.2 0 0.4 0.1 0.5s0.3 0.2 0.6 0.2h0.3s0.2 0 0.4-0.1v1.6c-0.3 0.1-0.6 0.2-0.8 0.2s-0.4 0-0.7 0c-0.7 0-1.3-0.3-1.6-0.8-0.2-0.3-0.3-0.7-0.4-1.2-0.4 0.6-1 1.1-1.9 1.5s-1.7 0.6-2.7 0.6c-1.2 0-2.1-0.4-2.9-1.1s-1.1-1.6-1.1-2.7c0-1.2 0.4-2.1 1.1-2.7s1.7-1 2.9-1.2l3.5-0.2zm-4.5 5.7c0.4 0.4 1 0.5 1.6 0.5 0.7 0 1.5-0.2 2.2-0.5 1.2-0.6 1.8-1.5 1.8-2.8v-1.7c-0.3 0.2-0.6 0.3-1 0.4s-0.8 0.2-1.2 0.2l-1.3 0.2c-0.8 0.1-1.3 0.3-1.7 0.5-0.7 0.4-1 1-1 1.8 0 0.6 0.2 1 0.6 1.4z"/>
		<path class="st1" d="m394.8 15.9h2.1v3.5h2v1.7h-2v8.2c0 0.4 0.1 0.7 0.4 0.9 0.2 0.1 0.4 0.1 0.8 0.1h0.3s0.3 0 0.4 0v1.7c-0.2 0.1-0.5 0.1-0.8 0.2s-0.5 0-0.8 0c-1 0-1.7-0.3-2-0.8s-0.5-1.2-0.5-2v-8.3h-1.7v-1.7h1.7v-3.5z"/>
		<path class="st1" d="m401.1 14.8h2.1v2.4h-2.1v-2.4zm0 4.7h2.1v12.5h-2.1v-12.5z"/>
		<path class="st1" d="m415.5 20.7c1.1 1.1 1.7 2.7 1.7 4.8 0 2-0.5 3.7-1.5 5s-2.5 2-4.5 2c-1.7 0-3.1-0.6-4.1-1.8s-1.5-2.7-1.5-4.7c0-2.1 0.5-3.8 1.6-5s2.5-1.9 4.3-1.9c1.5 0 2.9 0.5 4 1.6zm-1.3 8.3c0.5-1.1 0.8-2.2 0.8-3.5 0-1.2-0.2-2.1-0.6-2.9-0.6-1.2-1.6-1.7-3-1.7-1.3 0-2.2 0.5-2.8 1.5s-0.9 2.2-0.9 3.6c0 1.3 0.3 2.4 0.9 3.3s1.5 1.3 2.8 1.3 2.3-0.5 2.8-1.6z"/>
		<path class="st1" d="m419.7 19.4h2v1.8c0.6-0.7 1.2-1.3 1.9-1.6s1.4-0.5 2.2-0.5c1.8 0 3 0.6 3.6 1.9 0.3 0.7 0.5 1.7 0.5 2.9v8.1h-2.1v-7.9c0-0.8-0.1-1.4-0.3-1.9-0.4-0.8-1.1-1.2-2-1.2-0.5 0-0.9 0.1-1.2 0.2-0.6 0.2-1.1 0.5-1.5 1-0.4 0.4-0.6 0.8-0.7 1.3s-0.2 1.1-0.2 1.9v6.6h-2.1v-12.6z"/>
	</g>
	<path class="st1" d="m11.9 46c-2-1.3-3.7-2.8-5.2-4.6-3.1-3.9-5-8.6-5.6-13.6-0.5-9.2 1.8-16 7.1-20.8 3.4-3.1 7.5-3.9 11.2-1.8 5.3 2.9 6.3 10.6 2.1 14.9-4.6 4.7-11.1 2.7-12.9 12.6-1.2 6.5 3.3 13.3 3.3 13.3z"/>
	<path class="st1" d="m50.4 27.2s0.8 5.8-4.6 13.4c-2.8 3.5-6.5 6.2-10.7 7.8-5 1.9-11.6 2.8-17.9-1.6-4.3-3-3.8-8.6-2.7-10.9 1.2-2.6 3.6-4.4 6.5-4.9 2.8-0.5 5.7 0.4 7.7 2.5 0.4 0.4 5.7 4.8 11 3.6 7.3-1.6 10.7-9.9 10.7-9.9z"/>
	<path class="st1" d="m15.7 3s3.5-2.7 10.7-3c4.3 0.1 8.4 1.2 12.2 3.1 4.3 2.4 9.9 8.1 11 14.8 0.7 4.1-0.3 8.5-4.4 10.8-5.4 3.4-14-1.1-13-8.5 0.9-6.1 0.6-10.6-3.4-14.1-5.7-4.9-13.1-3.1-13.1-3.1z"/>
</g>
</svg>
