<?xml version="1.0" encoding="UTF-8"?>
<svg id="Layer_1" xmlns="http://www.w3.org/2000/svg" version="1.1" viewBox="0 0 275 32.1">
  <!-- Generator: Adobe Illustrator 29.3.1, SVG Export Plug-In . SVG Version: 2.1.0 Build 151)  -->
  <defs>
    <style>
      .st0 {
        fill: #fff;
      }

      .st1 {
        isolation: isolate;
      }
    </style>
  </defs>
  <g class="st1">
    <path class="st0" d="M44.4,9.5v6.8c0,.8.1,1.5.4,2,.4.8,1.2,1.2,2.2,1.2s2.1-.4,2.6-1.3c.3-.4.4-1.1.4-1.9v-6.8h1.5v6.2c0,1.3-.2,2.4-.6,3.1-.7,1.3-1.9,2-3.8,2s-3.1-.6-3.8-2c-.4-.7-.6-1.8-.6-3.1v-6.2h1.5Z"/>
    <path class="st0" d="M54,18.8h1.5v1.7h-1.5v-1.7Z"/>
    <path class="st0" d="M59.2,16.9c0,.6.2,1.2.4,1.5.4.7,1.3,1.1,2.5,1.1s1,0,1.5-.3c.8-.3,1.3-.9,1.3-1.7s-.2-1-.6-1.3-1-.4-1.7-.6l-1.4-.3c-1-.2-1.6-.4-2-.7-.7-.4-1-1.2-1-2.1s.3-1.8,1-2.4c.6-.6,1.6-1,2.8-1s2.1.3,2.9.8c.8.6,1.2,1.5,1.2,2.7h-1.4c0-.6-.3-1-.4-1.3-.4-.6-1.2-.8-2.2-.8s-1.5.2-1.8.6c-.4.4-.6.8-.6,1.3s.2,1,.6,1.2c.3.1,1,.4,1.9.6l1.5.4c.7.2,1.3.4,1.7.7.7.5,1,1.3,1,2.2s-.4,2.1-1.3,2.6c-.9.5-1.9.8-3,.8s-2.4-.3-3.1-1-1.2-1.7-1.1-2.8h1.4v-.2Z"/>
    <path class="st0" d="M68.6,18.8h1.5v1.7h-1.5v-1.7Z"/>
    <path class="st0" d="M77.1,9.5h4.4c1.5,0,2.6.5,3.5,1.6.7,1,1.1,2.2,1.1,3.7s-.2,2.2-.6,3.2c-.8,1.7-2.1,2.5-4,2.5h-4.4v-11h0ZM81.2,19.2c.5,0,.9,0,1.2-.1.6-.2,1-.6,1.4-1.2.3-.4.5-1,.6-1.7,0-.4.1-.8.1-1.2,0-1.3-.3-2.4-.8-3.2s-1.4-1.2-2.6-1.2h-2.6v8.5h2.5Z"/>
    <path class="st0" d="M92.9,12.7c.5.3,1,.6,1.2,1s.4.9.5,1.4c0,.4.1,1,.1,1.8h-5.8c0,.8.2,1.5.6,2s.9.8,1.7.8,1.3-.3,1.7-.7c.3-.3.4-.6.5-1h1.3c0,.3-.1.6-.3,1s-.4.6-.6.9c-.4.4-.9.6-1.5.8-.3,0-.7.1-1.1.1-1,0-1.9-.4-2.5-1.1s-1-1.7-1-3.1.3-2.4,1-3.1,1.6-1.2,2.8-1.2,1,.1,1.5.4h0ZM93.4,15.8c0-.6-.2-1-.4-1.4-.4-.6-1-1-1.9-1s-1.2.2-1.5.6-.6,1-.6,1.7h4.4Z"/>
    <path class="st0" d="M96.4,12.5h1.3v1.1c.3-.4.6-.6.9-.8.4-.3,1-.4,1.6-.4.9,0,1.7.3,2.3,1s1,1.7,1,3-.4,3-1.4,3.8c-.6.4-1.3.7-2.1.7s-1.1-.1-1.5-.4c-.3-.1-.5-.4-.8-.8v4h-1.3v-11.2h0ZM101.4,18.8c.4-.5.6-1.3.6-2.4s0-1.2-.3-1.7c-.3-.9-1-1.3-1.9-1.3s-1.6.4-1.9,1.4c-.2.5-.3,1.2-.3,1.9s0,1.2.3,1.6c.3.8,1,1.2,1.9,1.2.6,0,1.2-.2,1.5-.8Z"/>
    <path class="st0" d="M109.4,15.6c.3,0,.5-.2.6-.4,0-.1,0-.3,0-.5,0-.4-.2-.8-.5-1s-.8-.3-1.4-.3-1.2.2-1.5.6c-.2.2-.3.5-.3,1h-1.3c0-1,.3-1.7,1-2.1s1.3-.6,2.2-.6,1.7.2,2.3.5c.6.4.9.9.9,1.7v4.6c0,.1,0,.3,0,.3s.2.1.4.1h.2s.1,0,.3,0v1c-.2,0-.4.1-.5.1h-.4c-.4,0-.8-.2-1-.5-.1-.2-.2-.4-.3-.8-.3.4-.6.7-1.2,1-.6.3-1.1.4-1.7.4s-1.3-.3-1.9-.7-.7-1-.7-1.7.3-1.3.7-1.7,1.1-.6,1.9-.8h2.2q0-.1,0-.1ZM106.5,19.3c.3.3.6.3,1,.3s1-.1,1.4-.3c.8-.4,1.2-1,1.2-1.8v-1.1c-.2.1-.4.2-.6.3s-.5.1-.8.1h-.8c-.5.2-.8.3-1.1.4-.4.3-.6.6-.6,1.2,0,.4.1.6.4.9h0Z"/>
    <path class="st0" d="M113.6,12.4h1.3v1.4c.1-.3.4-.6.8-1s.9-.6,1.4-.6h.4v1.4h-.4c-.7,0-1.2.2-1.5.6s-.6,1-.6,1.5v4.6h-1.3v-8.1h0Z"/>
    <path class="st0" d="M119,10.2h1.3v2.2h1.3v1.1h-1.3v5.3c0,.3,0,.4.3.6.1,0,.3,0,.5,0h.4v1.1c-.1,0-.3,0-.5.1s-.3,0-.5,0c-.6,0-1.1-.2-1.3-.5s-.3-.8-.3-1.3v-5.3h-1v-1.1h1.1v-2.2h0Z"/>
    <path class="st0" d="M123,12.4h1.3v1.2c.3-.4.6-.7.9-.8.4-.3,1-.4,1.5-.4s1.2.1,1.5.4c.2.2.4.4.6.8.3-.4.6-.8,1.1-1s.8-.3,1.3-.3c1.1,0,1.8.4,2.2,1.2.2.4.3,1,.3,1.7v5.5h-1.4v-5.6c0-.5-.1-.9-.4-1.1s-.6-.3-1-.3-1,.2-1.3.5-.6,1-.6,1.8v4.7h-1.3v-5.3c0-.6,0-1-.2-1.2-.2-.4-.6-.6-1.2-.6s-1,.2-1.4.6-.6,1.1-.6,2.2v4.3h-1.3v-8.1h0Z"/>
    <path class="st0" d="M140.8,12.7c.5.3,1,.6,1.2,1s.4.9.5,1.4c0,.4.1,1,.1,1.8h-5.8c0,.8.2,1.5.6,2s.9.8,1.7.8,1.3-.3,1.7-.7c.3-.3.4-.6.5-1h1.3c0,.3-.1.6-.3,1s-.4.6-.6.9c-.4.4-.9.6-1.5.8-.3,0-.7.1-1.1.1-1,0-1.9-.4-2.5-1.1s-1-1.7-1-3.1.3-2.4,1-3.1,1.6-1.2,2.8-1.2,1,.1,1.5.4h0ZM141.3,15.8c0-.6-.2-1-.4-1.4-.4-.6-1-1-1.9-1s-1.2.2-1.5.6c-.4.4-.6,1-.6,1.7h4.4Z"/>
    <path class="st0" d="M144.4,12.4h1.3v1.2c.4-.4.8-.8,1.2-1s.9-.3,1.4-.3c1.2,0,1.9.4,2.3,1.2.2.4.3,1.1.3,1.9v5.2h-1.3v-5.1c0-.5,0-.9-.2-1.2-.3-.5-.7-.8-1.3-.8s-.6,0-.8.1c-.4.1-.7.3-1,.6-.3.3-.4.5-.4.8s-.1.7-.1,1.2v4.2h-1.3v-8.1h0Z"/>
    <path class="st0" d="M153.2,10.2h1.3v2.2h1.3v1.1h-1.3v5.3c0,.3,0,.4.3.6.1,0,.3,0,.5,0h.4v1.1c-.1,0-.3,0-.5.1s-.3,0-.5,0c-.6,0-1.1-.2-1.3-.5s-.3-.8-.3-1.3v-5.3h-1.1v-1.1h1.1v-2.2h0Z"/>
    <path class="st0" d="M167.4,13.3c.7.7,1.1,1.7,1.1,3.1s-.3,2.4-1,3.2-1.6,1.3-2.9,1.3-2-.4-2.6-1.2-1-1.7-1-3,.3-2.4,1-3.2,1.6-1.2,2.8-1.2,1.8.3,2.6,1ZM166.5,18.6c.3-.7.5-1.4.5-2.2s-.1-1.3-.4-1.9c-.4-.8-1-1.1-1.9-1.1s-1.4.3-1.8,1-.6,1.4-.6,2.3.2,1.5.6,2.1,1,.8,1.8.8,1.5-.3,1.8-1h0Z"/>
    <path class="st0" d="M170.7,10c.3-.4.9-.7,1.8-.7h.6v1.2h-.5c-.4,0-.6.1-.8.3s-.1.8-.1,1.6h1.3v1.1h-1.3v7h-1.3v-6.9h-1.1v-1.1h1.1v-1.3c.1-.5.2-1,.4-1.2h0Z"/>
    <path class="st0" d="M186.6,9.5v1.3h-3.7v9.7h-1.5v-9.7h-3.7v-1.3h9Z"/>
    <path class="st0" d="M187.3,12.4h1.3v1.4c.1-.3.4-.6.8-1s.9-.6,1.4-.6h.4v1.4h-.4c-.7,0-1.2.2-1.5.6s-.6,1-.6,1.5v4.6h-1.3v-8.1h0Z"/>
    <path class="st0" d="M196.6,15.6c.3,0,.5-.2.6-.4,0-.1,0-.3,0-.5,0-.4-.2-.8-.5-1-.3-.2-.8-.3-1.4-.3s-1.2.2-1.5.6c-.2.2-.3.5-.3,1h-1.3c0-1,.3-1.7,1-2.1s1.3-.6,2.2-.6,1.7.2,2.3.5c.6.4.9.9.9,1.7v4.6c0,.1,0,.3,0,.3s.2.1.4.1h.2s.1,0,.3,0v1c-.2,0-.4.1-.5.1h-.4c-.4,0-.8-.2-1-.5-.1-.2-.2-.4-.3-.8-.3.4-.6.7-1.2,1-.6.3-1.1.4-1.7.4s-1.3-.3-1.9-.7-.7-1-.7-1.7.3-1.3.7-1.7,1.1-.6,1.9-.8c0,0,2.2-.1,2.2-.1ZM193.8,19.3c.3.3.6.3,1,.3s1-.1,1.4-.3c.8-.4,1.2-1,1.2-1.8v-1.1c-.2.1-.4.2-.6.3s-.5.1-.8.1h-.8c-.5.2-.8.3-1.1.4-.4.3-.6.6-.6,1.2,0,.4,0,.6.4.9Z"/>
    <path class="st0" d="M200.9,12.4h1.3v1.2c.4-.4.8-.8,1.2-1s.9-.3,1.4-.3c1.2,0,1.9.4,2.3,1.2.2.4.3,1.1.3,1.9v5.2h-1.3v-5.1c0-.5,0-.9-.2-1.2-.3-.5-.7-.8-1.3-.8s-.6,0-.8.1c-.4.1-.7.3-1,.6-.3.3-.4.5-.4.8s-.1.7-.1,1.2v4.2h-1.3v-8.1h0Z"/>
    <path class="st0" d="M210.2,18c0,.4.1.8.3,1,.3.4,1,.6,1.8.6s1-.1,1.3-.3.6-.6.6-1-.1-.6-.4-.8c-.2-.1-.6-.3-1.2-.4l-1.1-.3c-.7-.2-1.2-.4-1.5-.6-.6-.4-.9-.9-.9-1.5s.3-1.3.8-1.9c.6-.4,1.3-.7,2.2-.7s2.1.4,2.6,1.1c.3.4.5,1,.5,1.5h-1.3c0-.3-.1-.6-.3-.8-.3-.4-.9-.5-1.7-.5s-.9.1-1.2.3-.4.4-.4.8.2.6.5.8c.2.1.5.3.9.3l.9.2c1,.3,1.7.4,2,.7.5.3.8.9.8,1.6s-.3,1.3-.8,1.9c-.6.5-1.4.8-2.5.8s-2.1-.3-2.6-.8-.8-1.2-.8-2h1.4Z"/>
    <path class="st0" d="M217,12.5h1.3v1.1c.3-.4.6-.6.9-.8.4-.3,1-.4,1.6-.4.9,0,1.7.3,2.3,1s1,1.7,1,3-.4,3-1.4,3.8c-.6.4-1.3.7-2.1.7s-1.1-.1-1.5-.4c-.3-.1-.5-.4-.8-.8v4h-1.3v-11.2h0ZM222.1,18.8c.4-.5.6-1.3.6-2.4s0-1.2-.3-1.7c-.3-.9-1-1.3-1.9-1.3s-1.6.4-1.9,1.4c-.2.5-.3,1.2-.3,1.9s0,1.2.3,1.6c.3.8,1,1.2,1.9,1.2.6,0,1.2-.2,1.5-.8Z"/>
    <path class="st0" d="M231.5,13.3c.7.7,1.1,1.7,1.1,3.1s-.3,2.4-1,3.2-1.6,1.3-2.9,1.3-2-.4-2.6-1.2-1-1.7-1-3,.3-2.4,1-3.2,1.6-1.2,2.8-1.2,1.9.3,2.6,1ZM230.7,18.6c.3-.7.5-1.4.5-2.2s-.1-1.3-.4-1.9c-.4-.8-1-1.1-1.9-1.1s-1.4.3-1.8,1-.6,1.4-.6,2.3.2,1.5.6,2.1,1,.8,1.8.8,1.5-.3,1.8-1h0Z"/>
    <path class="st0" d="M234.3,12.4h1.3v1.4c.1-.3.4-.6.8-1s.9-.6,1.4-.6h.4v1.4h-.4c-.7,0-1.2.2-1.5.6s-.6,1-.6,1.5v4.6h-1.3v-8.1h0Z"/>
    <path class="st0" d="M239.7,10.2h1.3v2.2h1.3v1.1h-1.3v5.3c0,.3,0,.4.3.6.1,0,.3,0,.5,0h.4v1.1c-.1,0-.3,0-.5.1s-.3,0-.5,0c-.6,0-1.1-.2-1.3-.5s-.3-.8-.3-1.3v-5.3h-1.1v-1.1h1.1v-2.2h0Z"/>
    <path class="st0" d="M248,15.6c.3,0,.5-.2.6-.4,0-.1,0-.3,0-.5,0-.4-.2-.8-.5-1-.3-.2-.8-.3-1.4-.3s-1.2.2-1.5.6c-.2.2-.3.5-.3,1h-1.3c0-1,.3-1.7,1-2.1s1.3-.6,2.2-.6,1.7.2,2.3.5c.6.4.9.9.9,1.7v4.6c0,.1,0,.3,0,.3s.2.1.4.1h.2s.1,0,.3,0v1c-.2,0-.4.1-.5.1h-.4c-.4,0-.8-.2-1-.5-.1-.2-.2-.4-.3-.8-.3.4-.6.7-1.2,1-.6.3-1.1.4-1.7.4s-1.3-.3-1.9-.7-.7-1-.7-1.7.3-1.3.7-1.7,1.1-.6,1.9-.8c0,0,2.2-.1,2.2-.1ZM245.1,19.3c.3.3.6.3,1,.3s1-.1,1.4-.3c.8-.4,1.2-1,1.2-1.8v-1.1c-.2.1-.4.2-.6.3s-.5.1-.8.1h-.8c-.5.2-.8.3-1.1.4-.4.3-.6.6-.6,1.2s.1.6.4.9Z"/>
    <path class="st0" d="M252.5,10.2h1.3v2.2h1.3v1.1h-1.3v5.3c0,.3,0,.4.3.6.1,0,.3,0,.5,0h.4v1.1c-.1,0-.3,0-.5.1s-.3,0-.5,0c-.6,0-1.1-.2-1.3-.5s-.3-.8-.3-1.3v-5.3h-1.1v-1.1h1.1v-2.2h0Z"/>
    <path class="st0" d="M256.5,9.5h1.3v1.5h-1.3v-1.5ZM256.5,12.5h1.3v8h-1.3v-8Z"/>
    <path class="st0" d="M265.8,13.3c.7.7,1.1,1.7,1.1,3.1s-.3,2.4-1,3.2-1.6,1.3-2.9,1.3-2-.4-2.6-1.2-1-1.7-1-3,.3-2.4,1-3.2,1.6-1.2,2.8-1.2,1.9.3,2.6,1ZM264.9,18.6c.3-.7.5-1.4.5-2.2s-.1-1.3-.4-1.9c-.4-.8-1-1.1-1.9-1.1s-1.4.3-1.8,1-.6,1.4-.6,2.3.2,1.5.6,2.1,1,.8,1.8.8,1.5-.3,1.8-1h0Z"/>
    <path class="st0" d="M268.5,12.4h1.3v1.2c.4-.4.8-.8,1.2-1s.9-.3,1.4-.3c1.2,0,1.9.4,2.3,1.2.2.4.3,1.1.3,1.9v5.2h-1.3v-5.1c0-.5,0-.9-.2-1.2-.3-.5-.7-.8-1.3-.8s-.6,0-.8.1c-.4.1-.7.3-1,.6-.3.3-.4.5-.4.8s-.1.7-.1,1.2v4.2h-1.3v-8.1h0Z"/>
  </g>
  <path class="st0" d="M6.9,29.5c-1.3-.8-2.4-1.8-3.3-3C1.6,24,.4,21,0,17.8-.3,11.9,1.1,7.6,4.5,4.5c2.2-2,4.8-2.5,7.2-1.2,3.4,1.9,4,6.8,1.3,9.6-3,3-7.1,1.7-8.3,8.1-.8,4.2,2.1,8.5,2.1,8.5Z"/>
  <path class="st0" d="M31.6,17.4s.5,3.7-3,8.6c-1.8,2.2-4.2,4-6.9,5-3.2,1.2-7.4,1.8-11.5-1-2.8-1.9-2.4-5.5-1.7-7,.8-1.7,2.3-2.8,4.2-3.1,1.8-.3,3.7.3,4.9,1.6.3.3,3.7,3.1,7.1,2.3,4.7-1,6.9-6.3,6.9-6.3Z"/>
  <path class="st0" d="M9.3,1.9S11.6.2,16.2,0c2.8,0,5.4.8,7.8,2,2.8,1.5,6.3,5.2,7.1,9.5.4,2.6-.2,5.5-2.8,6.9-3.5,2.2-9-.7-8.3-5.5.6-3.9.4-6.8-2.2-9-3.7-3.1-8.4-2-8.4-2Z"/>
</svg>